<?xml version="1.0" encoding="UTF-8" standalone="no"?>
<svg
   xmlns:dc="http://purl.org/dc/elements/1.1/"
   xmlns:cc="http://creativecommons.org/ns#"
   xmlns:rdf="http://www.w3.org/1999/02/22-rdf-syntax-ns#"
   xmlns:svg="http://www.w3.org/2000/svg"
   xmlns="http://www.w3.org/2000/svg"
   xmlns:sodipodi="http://sodipodi.sourceforge.net/DTD/sodipodi-0.dtd"
   xmlns:inkscape="http://www.inkscape.org/namespaces/inkscape"
   width="48"
   height="48"
   viewBox="0 0 48 48"
   fill="none"
   version="1.1"
   id="svg6"
   sodipodi:docname="facebook.svg"
   inkscape:version="0.92.5 (2060ec1f9f, 2020-04-08)">
  <metadata
     id="metadata12">
    <rdf:RDF>
      <cc:Work
         rdf:about="">
        <dc:format>image/svg+xml</dc:format>
        <dc:type
           rdf:resource="http://purl.org/dc/dcmitype/StillImage" />
      </cc:Work>
    </rdf:RDF>
  </metadata>
  <defs
     id="defs10" />
  <sodipodi:namedview
     pagecolor="#ffffff"
     bordercolor="#666666"
     borderopacity="1"
     objecttolerance="10"
     gridtolerance="10"
     guidetolerance="10"
     inkscape:pageopacity="0"
     inkscape:pageshadow="2"
     inkscape:window-width="1920"
     inkscape:window-height="1043"
     id="namedview8"
     showgrid="false"
     inkscape:zoom="6.9532167"
     inkscape:cx="-0.51398855"
     inkscape:cy="2.4045509"
     inkscape:window-x="4480"
     inkscape:window-y="0"
     inkscape:window-maximized="1"
     inkscape:current-layer="svg6" />
  <rect
     width="48"
     height="48"
     id="rect2"
     x="0.049350619"
     y="-0.04723382"
     style="fill:#323238" />
  <path
     d="m 38.087619,20.086374 c -0.113097,-0.735119 -0.933038,-1.130954 -1.498516,-1.498513 -1.017858,-0.678572 -2.007442,-1.32887 -3.025301,-2.007443 -2.403276,-1.611609 -4.834828,-3.223219 -7.238104,-4.834828 -0.565478,-0.36756 -1.130954,-0.763394 -1.696432,-1.130954 -0.395833,-0.282738 -0.933036,-0.282738 -1.357144,0 -1.61161,1.074406 -3.251493,2.177086 -4.863102,3.251492 l -7.125011,4.750007 c -0.622025,0.395834 -1.4419664,0.791667 -1.4702404,1.639883 -0.02827,0.933037 0,1.894347 0,2.827385 v 4.523815 c 0,0.819942 -0.169643,1.781253 0.5937514,2.290182 1.809527,1.24405 3.647326,2.431551 5.485127,3.647326 2.261907,1.498515 4.523816,3.025302 6.785724,4.523815 0.622024,0.424111 1.244049,0.876493 2.007443,0.36756 0.650299,-0.424108 1.272324,-0.848215 1.922622,-1.272322 2.516372,-1.668157 5.032744,-3.364589 7.549116,-5.032745 l 2.799112,-1.866074 c 0.169643,-0.113096 0.36756,-0.226191 0.537203,-0.36756 0.395833,-0.282739 0.565477,-0.678572 0.565477,-1.159228 v -7.775307 c 0.02828,-0.311013 0.05654,-0.593752 0.02828,-0.876491 0,-0.02827 0,0.05654 0,0 z m -12.921149,-6.191972 9.528286,6.361616 -4.241077,2.855658 -5.287209,-3.53423 z m -2.431551,0 v 5.65477 l -5.258936,3.534231 -4.269352,-2.827385 z m -10.489598,8.623524 3.025301,2.035716 -3.025301,2.035718 z m 10.489598,12.694958 -9.528288,-6.361616 4.241078,-2.855659 5.258936,3.534231 v 5.683044 z m 1.215774,-7.775309 -4.297625,-2.883933 4.297625,-2.883932 4.297626,2.883932 z m 1.215777,7.775309 v -5.654771 l 5.258935,-3.534231 4.241077,2.85566 z m 10.489597,-8.623524 -3.025302,-2.035718 3.053576,-2.035716 z"
     id="path2"
     inkscape:connector-curvature="0"
     style="fill:#ffffff;stroke-width:0.28273848" />
  <path
     style="fill:#000000;stroke-width:0.04117789"
     d=""
     id="path4520"
     inkscape:connector-curvature="0" />
</svg>
