<?xml version="1.0" encoding="UTF-8" standalone="no"?>
<svg
   xmlns:dc="http://purl.org/dc/elements/1.1/"
   xmlns:cc="http://creativecommons.org/ns#"
   xmlns:rdf="http://www.w3.org/1999/02/22-rdf-syntax-ns#"
   xmlns:svg="http://www.w3.org/2000/svg"
   xmlns="http://www.w3.org/2000/svg"
   xmlns:sodipodi="http://sodipodi.sourceforge.net/DTD/sodipodi-0.dtd"
   xmlns:inkscape="http://www.inkscape.org/namespaces/inkscape"
   width="48"
   height="48"
   viewBox="0 0 48 48"
   fill="none"
   version="1.1"
   id="svg6"
   sodipodi:docname="facebook.svg"
   inkscape:version="0.92.5 (2060ec1f9f, 2020-04-08)">
  <metadata
     id="metadata12">
    <rdf:RDF>
      <cc:Work
         rdf:about="">
        <dc:format>image/svg+xml</dc:format>
        <dc:type
           rdf:resource="http://purl.org/dc/dcmitype/StillImage" />
      </cc:Work>
    </rdf:RDF>
  </metadata>
  <defs
     id="defs10" />
  <sodipodi:namedview
     pagecolor="#ffffff"
     bordercolor="#666666"
     borderopacity="1"
     objecttolerance="10"
     gridtolerance="10"
     guidetolerance="10"
     inkscape:pageopacity="0"
     inkscape:pageshadow="2"
     inkscape:window-width="1920"
     inkscape:window-height="1043"
     id="namedview8"
     showgrid="false"
     inkscape:zoom="9.8333333"
     inkscape:cx="22.49796"
     inkscape:cy="30.945051"
     inkscape:window-x="4480"
     inkscape:window-y="0"
     inkscape:window-maximized="1"
     inkscape:current-layer="svg6" />
  <rect
     width="48"
     height="48"
     fill="#323238"
     id="rect2" />
  <g
     id="g4569"
     transform="matrix(0.03387931,0,0,0.03387931,11.652719,13.855275)"
     style="fill:#ffffff">
    <path
       style="fill:#ffffff"
       d="M 146.24129,574.45216 C 86.785159,568.94238 30.006279,543.85409 -10.422341,505.22884 c -8.6012,-8.21759 -19.9277,-21.24608 -24.3457,-28.00428 l -2.7999,-4.2828 0.7003,-27.2172 c 1.4628,-56.85075 9.5982,-113.63267 25.2347,-176.12702 15.3252003,-61.25028 43.24183,-137.19995 67.66553,-184.090177 l 5.2087,-10 10.5,-7.349 C 122.51981,32.618233 188.06427,8.2476234 240.42226,5.4397434 l 13.1811,-0.70688 3.0689,3.36011 c 1.688,1.84806 3.069,3.8571996 3.069,4.4647496 0,0.60755 -11.5875,4.95915 -25.75,9.67022 -50.25873,16.71827 -90.4121,35.84938 -125.74997,59.91369 -13.772161,9.37854 -18.043011,12.65606 -17.369461,13.3296 0.22762,0.22763 7.69133,-2.91608 16.586011,-6.986 55.68307,-25.47882 107.35093,-40.83189 162.78342,-48.37099 79.0693,-10.75383 142.9421,-9.10913 211.0131,5.43349 41.9102,8.95365 86.3547,24.03496 124.8814,42.37582 21.9241,10.43715 21.7992,9.62915 -0.8945,-5.78372 -31.1283,-21.14149 -70.6694,-40.59574 -113,-55.59612 -8.25,-2.9235 -17.7,-6.12176 -21,-7.10726 -9.104,-2.7188 -9.4708,-3.38679 -4.8768,-8.88263 2.1299,-2.5480196 4.9786,-4.9103696 6.3305,-5.2496796 1.3519,-0.33931 9.0029,-0.12168 17.0022,0.48361 53.2184,4.02693 116.5634,28.3968496 166.7101,64.1363196 7.4103,5.28128 8.1158,6.12421 13.0427,15.58329 21.3065,40.905447 47.9443,111.162527 62.7492,165.499997 19.4021,71.21049 30.4525,146.86866 30.5261,209.00034 l 0.016,13.50033 -6.3932,8.49967 c -39.8297,52.95269 -118.9975,91.30318 -190.5584,92.31035 l -13.4507,0.18931 -8.3715,-10 c -21.987,-26.26434 -34.5066,-41.92173 -34.6112,-43.28582 -0.081,-1.05649 3.8646,-2.87714 13.385,-6.17625 35.9186,-12.44685 63.9661,-29.01753 88.8874,-52.51538 6.8103,-6.42125 16.4733,-17.49518 15.8287,-18.1398 -0.2135,-0.21349 -6.1994,3.01428 -13.3021,7.17281 -43.6046,25.52994 -102.8056,47.34401 -156.9556,57.83416 -76.3094,14.78296 -154.4816,10.33281 -235.36383,-13.39867 -35.12426,-10.30574 -72.87023,-26.22162 -105.0709,-44.30396 -7.41201,-4.16222 -13.66308,-7.38097 -13.89127,-7.15278 -0.62574,0.62573 5.74128,8.06757 14.0015,16.36511 20.77986,20.87373 47.72104,37.97971 79.5568,50.51364 7.80486,3.07282 14.84251,5.58694 15.63921,5.58694 0.79671,0 2.44756,0.80894 3.66856,1.79765 l 2.22,1.79765 -11.30575,13.95235 c -6.21816,7.67379 -16.42386,20.13985 -22.67934,27.70235 l -11.3736,13.75 -6.17988,-0.12891 c -3.39893,-0.0709 -12.47987,-0.71274 -20.17987,-1.42629 z M 255.02546,404.61162 c 19.6963,-6.61185 35.2782,-21.56644 43.3861,-41.63957 7.9576,-19.70118 7.1499,-45.2003 -2.0421,-64.46469 -9.089,-19.04848 -26.3679,-33.41714 -45.6282,-37.94303 -8.3444,-1.96083 -23.89411,-1.98402 -31.53987,-0.047 -19.97895,5.06149 -37.52379,20.12117 -46.49679,39.91071 -5.01865,11.06838 -6.35151,17.84932 -6.40382,32.57935 -0.0563,15.85395 1.89991,24.27275 8.70045,37.44341 6.07258,11.76084 19.13153,24.63337 30.74006,30.30125 4.675,2.28257 11.65,4.84316 15.5,5.6902 9.89307,2.17659 24.14787,1.40419 33.78417,-1.8306 z m 250.2942,-0.007 c 17.4227,-5.55514 31.904,-18.39673 40.7085,-36.09926 11.5538,-23.2302 10.5871,-53.24967 -2.4216,-75.19831 -4.6463,-7.83929 -15.8485,-19.47814 -23.2412,-24.14708 -14.5914,-9.21528 -33.2231,-12.44479 -50.1152,-8.68665 -22.7188,5.05446 -42.1398,23.2704 -50.0203,46.91666 -14.7427,44.23674 10.0996,90.41406 53.5801,99.5956 7.6281,1.61078 22.5195,0.48554 31.5097,-2.38096 z"
       id="path4534"
       inkscape:connector-curvature="0" />
  </g>
  <path
     style="fill:#000000;stroke-width:0.04117789"
     d=""
     id="path4520"
     inkscape:connector-curvature="0" />
</svg>
